<svg width="14" height="13" viewBox="0 0 14 13" fill="none" xmlns="http://www.w3.org/2000/svg">
<path d="M11.1627 9.18125C11.9171 8.20625 12.3361 7.06875 12.3361 5.76875C12.3361 2.6 9.73793 0 6.46924 0C3.20055 0 0.518555 2.6 0.518555 5.76875C0.518555 8.9375 3.20055 11.5375 6.46924 11.5375C7.81024 11.5375 9.06743 11.1313 9.98937 10.4L12.5037 12.8375C12.6714 13 12.9228 13.0813 13.0904 13.0813C13.2581 13.0813 13.5095 13 13.6771 12.8375C14.0124 12.5125 14.0124 12.025 13.6771 11.7L11.1627 9.18125ZM6.46924 9.83125C4.12249 9.83125 2.1948 8.04375 2.1948 5.76875C2.1948 3.49375 4.12249 1.625 6.46924 1.625C8.81599 1.625 10.7437 3.49375 10.7437 5.76875C10.7437 8.04375 8.81599 9.83125 6.46924 9.83125Z" fill="#778CA2"/>
</svg>
